<?xml version="1.0" encoding="utf-8"?>
<!-- Generator: Adobe Illustrator 25.0.1, SVG Export Plug-In . SVG Version: 6.00 Build 0)  -->
<svg version="1.1" id="Capa_1" xmlns="http://www.w3.org/2000/svg" xmlns:xlink="http://www.w3.org/1999/xlink" x="0px" y="0px"
	 viewBox="0 0 512 512" style="enable-background:new 0 0 512 512;" xml:space="preserve">
<style type="text/css">
	.st0{fill:#FFFFFF;}
	.st1{display:none;fill:none;}
	.st2{fill:url(#SVGID_1_);}
	.st3{fill:url(#SVGID_2_);}
</style>
<path class="st0" d="M479.9,264.9l-184.1-32.5c-14.5-2.6-28.4,7.2-30.9,21.7l-32.5,184.1c-2.6,14.5,7.2,28.4,21.7,30.9l184.1,32.5
	c14.5,2.6,28.4-7.2,30.9-21.7l32.5-184.1C504.1,281.4,494.4,267.5,479.9,264.9z"/>
<path class="st0" d="M216.1,10.4L32,42.8c-14.5,2.6-24.2,16.5-21.6,31l32.5,184.1c2.6,14.5,16.5,24.2,30.9,21.7l184.1-32.5
	c14.5-2.6,24.2-16.5,21.7-30.9L247.1,32C244.5,17.5,230.6,7.8,216.1,10.4z"/>
<path class="st1" d="M-2.7,21.3h48v48h-48C-2.7,69.3-2.7,21.3-2.7,21.3z"/>
<linearGradient id="SVGID_1_" gradientUnits="userSpaceOnUse" x1="241.9923" y1="147" x2="492.0353" y2="147" gradientTransform="matrix(1 0 0 -1 0 514)">
	<stop  offset="0" style="stop-color:#51CBFF"/>
	<stop  offset="1" style="stop-color:#0088C2"/>
</linearGradient>
<path class="st2" d="M471.6,272.5l-170.5-30.1c-13.4-2.4-26.3,6.7-28.6,20.1L242.4,433c-2.4,13.4,6.7,26.3,20.1,28.6L433,491.7
	c13.4,2.4,26.3-6.7,28.6-20.1l30.1-170.5C494,287.8,485,274.9,471.6,272.5z M405.7,361.4c-2.4,13.5-15.3,22.4-28.6,20.1l-24.4-4.3
	l-4.3,24.4l48.7,8.6l-4.3,24.4l-73.1-12.9l8.6-48.7c2.4-13.5,15.3-22.4,28.6-20.1l24.4,4.3l4.3-24.4l-48.7-8.6l4.3-24.4l48.7,8.6
	c13.4,2.4,22.4,15.1,20.1,28.6L405.7,361.4z"/>
<linearGradient id="SVGID_2_" gradientUnits="userSpaceOnUse" x1="19.9769" y1="369" x2="270.0231" y2="369" gradientTransform="matrix(1 0 0 -1 0 514)">
	<stop  offset="0" style="stop-color:#FF6D6D"/>
	<stop  offset="1" style="stop-color:#FF1111"/>
</linearGradient>
<path class="st3" d="M210.9,20.4l-170.5,30C27,52.8,18,65.7,20.4,79.1l30.1,170.5c2.4,13.4,15.3,22.4,28.6,20.1l170.5-30.1
	c13.4-2.4,22.4-15.3,20.1-28.6L239.6,40.4C237.2,27,224.3,18,210.9,20.4z M180.1,201.6l-24.4,4.3l-17.2-97.4l-24.4,4.3l-4.3-24.4
	l48.7-8.6L180.1,201.6z"/>
</svg>
